<svg width="24" height="24" viewBox="0 0 24 24" fill="none" xmlns="http://www.w3.org/2000/svg">
<path d="M11 2C9.0222 2 7.08879 2.58649 5.4443 3.6853C3.79981 4.78412 2.51809 6.3459 1.76121 8.17317C1.00433 10.0004 0.806301 12.0111 1.19215 13.9509C1.578 15.8907 2.53041 17.6725 3.92894 19.0711C5.32746 20.4696 7.10929 21.422 9.0491 21.8079C10.9889 22.1937 12.9996 21.9957 14.8268 21.2388C16.6541 20.4819 18.2159 19.2002 19.3147 17.5557C20.4135 15.9112 21 13.9778 21 12C21 10.6868 20.7413 9.38642 20.2388 8.17317C19.7363 6.95991 18.9997 5.85752 18.0711 4.92893C17.1425 4.00035 16.0401 3.26375 14.8268 2.7612C13.6136 2.25866 12.3132 2 11 2ZM11 20C9.4178 20 7.87104 19.5308 6.55544 18.6518C5.23985 17.7727 4.21447 16.5233 3.60897 15.0615C3.00347 13.5997 2.84504 11.9911 3.15372 10.4393C3.4624 8.88743 4.22433 7.46197 5.34315 6.34315C6.46197 5.22433 7.88743 4.4624 9.4393 4.15372C10.9911 3.84504 12.5997 4.00346 14.0615 4.60896C15.5233 5.21447 16.7727 6.23984 17.6518 7.55544C18.5308 8.87103 19 10.4177 19 12C18.9976 14.121 18.154 16.1544 16.6542 17.6542C15.1544 19.154 13.121 19.9976 11 20ZM10.3975 12.5522L8.2656 10.4209L7.0645 11.623L10.3975 14.9565L15.123 10.2314L13.9219 9.0293L10.3975 12.5522Z" fill="#42FF00"/>
</svg>
